
        <svg xmlns="http://www.w3.org/2000/svg" xmlns:xlink="http://www.w3.org/1999/xlink" version="1.1" width="3187.5" 
        height="1123.2642570019407" viewBox="0 0 3187.5 1123.2642570019407">
			<rect fill="#113a5d" width="3187.5" height="1123.2642570019407"/>
			<g transform="scale(9.375) translate(10, 10)">
				<defs id="SvgjsDefs1020"></defs><g id="SvgjsG1021" featureKey="4K7G0D-0" transform="matrix(0.2083328664302826,0,0,0.2083328664302826,-3.333137962987982,-3.4257498644990756)" fill="#ff7a8a"><g xmlns="http://www.w3.org/2000/svg"><g><g><g><path d="M256,265.556c-68.925,0-125-56.075-125-125c0-21.81,5.703-43.282,16.491-62.096      c10.462-18.244,25.482-33.684,43.438-44.652c2.358-1.438,5.434-0.695,6.874,1.661c1.439,2.356,0.696,5.434-1.661,6.874      C161.613,63.433,141,100.148,141,140.556c0,63.411,51.589,115,115,115s115-51.589,115-115c0-50.291-33.588-95.566-81.679-110.1      c-2.644-0.799-4.139-3.589-3.34-6.232c0.799-2.644,3.589-4.141,6.232-3.34c25.15,7.601,47.758,23.401,63.657,44.49      C372.311,87.178,381,113.175,381,140.556C381,209.481,324.925,265.556,256,265.556z M240.325,26.57      c-2.474,0-4.624-1.835-4.952-4.355c-0.356-2.738,1.574-5.247,4.313-5.604l1.024-0.13c2.739-0.334,5.237,1.608,5.576,4.349      c0.339,2.74-1.608,5.237-4.349,5.576l-0.96,0.121C240.757,26.556,240.54,26.57,240.325,26.57z"></path></g><g><path d="M364.491,455.556H147.509c-1.715,0-3.311-0.879-4.227-2.328c-0.917-1.45-1.025-3.269-0.29-4.817      c4.155-8.745,6.262-18.116,6.262-27.854c0-9.737-2.107-19.109-6.262-27.854c-0.736-1.55-0.627-3.368,0.29-4.817      c0.916-1.45,2.512-2.329,4.227-2.329h216.982c2.762,0,5,2.239,5,5c0,2.063-1.248,3.833-3.03,4.598      c0.435,1.091,0.488,2.339,0.062,3.531c-0.104,0.289-0.205,0.579-0.305,0.871c-0.888,2.613-3.728,4.013-6.343,3.124      c-2.614-0.89-4.014-3.729-3.124-6.344c0.088-0.261,0.179-0.521,0.271-0.78H154.983c2.837,7.996,4.271,16.374,4.271,25      s-1.434,17.004-4.271,25h203.062c0.396-1.45,1.44-2.706,2.941-3.316c2.558-1.039,5.476,0.19,6.515,2.749      c0.468,1.15,0.975,2.302,1.507,3.423c0.735,1.55,0.626,3.367-0.29,4.816C367.801,454.677,366.206,455.556,364.491,455.556z"></path></g><g><path d="M84.254,495.556c-28.8,0-55.402-16.821-67.771-42.854c-0.736-1.549-0.627-3.367,0.29-4.816      c0.916-1.45,2.512-2.329,4.227-2.329h48.254c11.028,0,20-8.972,20-20v-10c0-11.027-8.972-20-20-20H21      c-1.715,0-3.311-0.879-4.227-2.328c-0.917-1.45-1.025-3.269-0.29-4.817c12.369-26.033,38.97-42.854,67.771-42.854      s55.402,16.821,67.771,42.854c1.185,2.494,0.124,5.477-2.371,6.662c-2.492,1.186-5.477,0.124-6.662-2.371      c-10.721-22.564-33.777-37.146-58.738-37.146c-22.216,0-42.923,11.551-54.768,30h39.768c16.542,0,30,13.458,30,30v10      c0,16.542-13.458,30-30,30H29.487c11.844,18.449,32.552,30,54.768,30c24.958,0,47.315-13.924,58.348-36.339      c1.218-2.478,4.215-3.499,6.694-2.277c2.478,1.219,3.498,4.216,2.278,6.693C138.847,479.492,113.052,495.556,84.254,495.556z       M151.954,407.725c-2.216,0-4.241-1.485-4.832-3.729c-0.079-0.301-0.16-0.601-0.244-0.899c-0.74-2.66,0.817-5.417,3.478-6.157      c2.661-0.741,5.417,0.817,6.157,3.478c0.095,0.344,0.189,0.688,0.28,1.033c0.703,2.67-0.892,5.405-3.563,6.108      C152.804,407.671,152.375,407.725,151.954,407.725z"></path></g><g><path d="M427.745,495.556c-28.8,0-55.401-16.821-67.771-42.854c-4.797-10.095-7.229-20.911-7.229-32.146      s2.433-22.05,7.23-32.146c12.368-26.033,38.97-42.854,67.77-42.854c28.801,0,55.402,16.821,67.771,42.854      c0.735,1.549,0.626,3.367-0.29,4.817c-0.916,1.449-2.512,2.328-4.227,2.328h-48.255c-11.028,0-20,8.973-20,20v10      c0,2.762-2.238,5-5,5s-5-2.238-5-5v-10c0-16.542,13.458-30,30-30h39.769c-11.845-18.449-32.553-30-54.769-30      c-24.961,0-48.017,14.581-58.737,37.146c-4.156,8.745-6.263,18.116-6.263,27.854s2.106,19.11,6.262,27.854      c10.722,22.565,33.777,37.146,58.738,37.146c22.216,0,42.924-11.551,54.769-30h-16.08c-2.762,0-5-2.238-5-5c0-2.761,2.238-5,5-5      H491c1.715,0,3.311,0.879,4.227,2.329c0.916,1.449,1.025,3.268,0.29,4.816C483.147,478.734,456.546,495.556,427.745,495.556z       M421.035,442.953c-1.735,0-3.422-0.904-4.345-2.519c-0.197-0.344-0.387-0.691-0.57-1.043c-1.278-2.448-0.331-5.469,2.117-6.747      c2.446-1.278,5.467-0.332,6.746,2.117c0.125,0.239,0.254,0.475,0.387,0.708c1.371,2.397,0.539,5.452-1.857,6.823      C422.729,442.74,421.877,442.953,421.035,442.953z"></path></g><g><path d="M261,395.556c-2.762,0-5-2.238-5-5v-260c0-2.761,2.238-5,5-5s5,2.239,5,5v260C266,393.317,263.762,395.556,261,395.556z      "></path></g><g><path d="M261.002,195.557c-1.984,0-3.862-1.189-4.645-3.145c-1.025-2.564,0.222-5.474,2.785-6.5l28.534-11.414      C298.808,170.047,306,159.424,306,147.436v-36.88c0-2.761,2.238-5,5-5s5,2.239,5,5v36.88c0,16.101-9.659,30.369-24.608,36.349      l-28.534,11.414C262.248,195.441,261.619,195.557,261.002,195.557z"></path></g><g><path d="M260.996,235.557c-0.752,0-1.515-0.17-2.232-0.529l-21.123-10.562C224.292,217.792,216,204.375,216,189.451v-28.895      c0-2.761,2.239-5,5-5s5,2.239,5,5v28.895c0,11.112,6.174,21.102,16.113,26.071l21.123,10.562      c2.47,1.235,3.471,4.238,2.235,6.708C264.596,234.544,262.83,235.557,260.996,235.557z"></path></g><g><path d="M371.005,305.557c-1.758,0-3.462-0.928-4.376-2.572c-1.341-2.414-0.471-5.458,1.943-6.799L456,247.614V130.556      c0-2.761,2.238-5,5-5s5,2.239,5,5v120c0,1.816-0.984,3.489-2.572,4.371l-90,50C372.659,305.354,371.826,305.557,371.005,305.557      z"></path></g><g><path d="M311,395.556c-2.762,0-5-2.238-5-5v-100c0-1.829,0.999-3.513,2.605-4.39L416,227.587V59.898l-22.227,14.817      c-2.298,1.532-5.401,0.912-6.934-1.387c-1.532-2.297-0.911-5.402,1.387-6.934l30-20c1.536-1.023,3.509-1.118,5.133-0.248      c1.626,0.87,2.641,2.564,2.641,4.408v180c0,1.83-0.999,3.513-2.605,4.39L316,293.524v97.031      C316,393.317,313.762,395.556,311,395.556z"></path></g><g><path d="M450.995,75.556c-0.953,0-1.916-0.272-2.769-0.84l-30-20c-2.298-1.532-2.919-4.636-1.387-6.934      c1.531-2.298,4.636-2.919,6.934-1.387l30,20c2.298,1.532,2.919,4.636,1.387,6.934C454.197,74.774,452.611,75.556,450.995,75.556      z"></path></g><g><path d="M140.996,305.557c-0.822,0-1.655-0.203-2.424-0.63l-90-50c-1.587-0.882-2.572-2.555-2.572-4.371v-120      c0-2.761,2.239-5,5-5s5,2.239,5,5v117.058l87.428,48.572c2.414,1.341,3.284,4.385,1.942,6.799      C144.457,304.629,142.752,305.557,140.996,305.557z"></path></g><g><path d="M201,395.556c-2.761,0-5-2.238-5-5v-97.031L88.606,234.945C87,234.069,86,232.385,86,230.556v-180      c0-1.844,1.015-3.538,2.641-4.408c1.626-0.871,3.6-0.775,5.133,0.248l30,20c2.298,1.532,2.918,4.636,1.387,6.934      c-1.532,2.298-4.636,2.917-6.934,1.387L96,59.898v167.689l107.394,58.579c1.606,0.877,2.606,2.561,2.606,4.39v100      C206,393.317,203.761,395.556,201,395.556z"></path></g><g><path d="M61.004,75.556c-1.616,0-3.201-0.782-4.165-2.227c-1.532-2.297-0.911-5.402,1.387-6.934l30-20      c2.298-1.532,5.401-0.911,6.934,1.387c1.532,2.297,0.911,5.402-1.387,6.934l-30,20C62.921,75.284,61.958,75.556,61.004,75.556z"></path></g></g></g></g></g><g id="SvgjsG1022" featureKey="wPuqcM-0" transform="matrix(5.2580461502075195,0,0,5.2580461502075195,114.53163078583867,-25.81214956420299)" fill="#ffffff"><path d="M3.9 5.859999999999999 l0 14.14 l-2.86 0 l0 -14.14 l2.86 0 z M13.66 9.6 l2.86 0 l0 10.4 l-2.86 0 l0 -1.28 c-0.06 0.42 -1.08 1.48 -2.88 1.48 c-2.38 0 -5.14 -1.72 -5.14 -5.42 c0 -3.58 2.76 -5.36 5.14 -5.36 c1.8 0 2.82 1.12 2.88 1.34 l0 -1.16 z M11.18 17.66 c1.4 0 2.62 -0.96 2.62 -2.88 c0 -1.86 -1.22 -2.82 -2.62 -2.82 c-1.44 0 -2.76 0.98 -2.76 2.82 c0 1.9 1.32 2.88 2.76 2.88 z M27.940000000000005 9.6 l-5.3 7.9 l5 0 l0 2.5 l-9.58 0 l5.3 -7.9 l-4.82 0 l0 -2.5 l9.4 0 z M34 9.42 c2.36 0 5.62 1.78 5 6.38 l-7.56 0 c0.36 1.3 1.44 1.98 2.84 1.98 c1.3 0 1.8 -0.3 2.54 -0.7 l1.58 1.54 c-0.9 0.94 -2.18 1.58 -4.22 1.58 c-2.6 0 -5.64 -1.78 -5.64 -5.36 c0 -3.64 3.1 -5.42 5.46 -5.42 z M34 11.86 c-1.04 0 -2.14 0.64 -2.52 1.92 l5 0 c-0.32 -1.28 -1.46 -1.92 -2.48 -1.92 z"></path></g><g id="SvgjsG1023" featureKey="Li3fkV-0" transform="matrix(0.35405248403549194,0,0,0.35405248403549194,119.96459461649627,88.05986311638146)" fill="#ffffff"><path d="M1.46 5.84 l3.52 12.54 l0.04 0 l3.58 -12.54 l1.68 0 l3.58 12.54 l0.04 0 l3.52 -12.54 l1.36 0 l-4.12 14.14 l-0.02 0.02 l-1.6 0 l-3.58 -12.6 l-0.04 0 l-3.58 12.6 l-1.62 0 l-4.12 -14.16 l1.36 0 z M36.704 15.04 l6.5 0 l-3.2 -7.76 z M40.744 5.84 l5.96 14.16 l-1.48 0 l-1.54 -3.76 l-7.5 0 l-1.6 3.76 l-1.38 0 l6.18 -14.16 l1.36 0 z M64.28800000000001 5.84 l0 14.16 l-1.32 0 l0 -14.16 l1.32 0 z M91.69200000000001 5.84 l0 1.2 l-4.84 0 l0 12.96 l-1.32 0 l0 -12.96 l-4.84 0 l0 -1.2 l11 0 z M109.41600000000001 5.84 l0 14.16 l-1.32 0 l0 -14.16 l1.32 0 z M129.22 5.84 l8.62 12.4 l0.04 0 l0 -12.4 l1.32 0 l0 14.16 l-1.7 0 l-8.62 -12.4 l-0.04 0 l0 12.4 l-1.32 0 l0 -14.16 l1.7 0 z M163.704 5.48 q3.2 -0.02 5.1 1.96 l-0.96 1 q-0.6 -0.74 -1.77 -1.25 t-2.37 -0.51 q-2.66 0 -4.32 1.76 t-1.68 4.48 q0 2.7 1.64 4.44 t4.38 1.8 q2.6 0 3.94 -0.84 l0 -4.76 l-3.4 0 l0 -1.2 l4.72 0 l0 6.72 q-2.3 1.28 -5.28 1.28 q-3.2 0 -5.23 -2.09 t-2.09 -5.35 q0.02 -3.28 2.06 -5.34 t5.26 -2.1 z M207.832 5.84 l0 14.16 l-1.32 0 l0 -14.16 l1.32 0 z M229.976 5.48 q2.46 0 3.86 1.78 l-1.14 0.82 q-1.04 -1.4 -2.76 -1.4 q-1.4 0 -2.27 0.72 t-0.91 1.96 q0 1.08 0.66 1.75 t2.3 1.13 q2.16 0.64 2.88 1.13 t1.09 1.21 t0.37 1.8 q0 1.72 -1.23 2.83 t-3.17 1.15 q-3.06 0 -4.6 -2.14 l1.26 -0.84 q1.06 1.76 3.24 1.78 q1.42 0 2.3 -0.79 t0.88 -1.99 q0 -0.7 -0.25 -1.15 t-0.76 -0.78 t-1.3 -0.6 t-1.85 -0.63 q-1.6 -0.52 -2.37 -1.46 t-0.77 -2.4 q0 -1.72 1.29 -2.8 t3.25 -1.08 z M279.184 5.84 l0 1.2 l-7.16 0 l0 5.04 l6.66 0 l0 1.2 l-6.66 0 l0 6.72 l-1.32 0 l0 -14.16 l8.48 0 z M296.448 12.92 q0 2.7 1.66 4.45 t4.34 1.79 q2.7 0 4.34 -1.77 t1.66 -4.47 q0 -2.74 -1.64 -4.47 t-4.38 -1.77 q-2.68 0 -4.32 1.76 t-1.66 4.48 z M302.448 5.48 q2.16 0 3.82 0.95 t2.57 2.66 t0.93 3.83 q0 3.26 -2.06 5.33 t-5.26 2.11 q-3.22 0 -5.24 -2.09 t-2.08 -5.35 q0.02 -3.26 2.04 -5.32 t5.28 -2.12 z M331.172 12.08 q1.54 0 2.38 -0.69 t0.84 -1.83 t-0.82 -1.82 t-2.44 -0.7 l-2.86 0 l0 5.04 l2.9 0 z M330.772 5.84 q4.9 0 4.94 3.72 q0 3.14 -3.62 3.64 l4.12 6.8 l-1.5 0 l-3.98 -6.72 l-2.46 0 l0 6.72 l-1.32 0 l0 -14.16 l3.82 0 z M376.5 5.48 q2.46 0 3.86 1.78 l-1.14 0.82 q-1.04 -1.4 -2.76 -1.4 q-1.4 0 -2.27 0.72 t-0.91 1.96 q0 1.08 0.66 1.75 t2.3 1.13 q2.16 0.64 2.88 1.13 t1.09 1.21 t0.37 1.8 q0 1.72 -1.23 2.83 t-3.17 1.15 q-3.06 0 -4.6 -2.14 l1.26 -0.84 q1.06 1.76 3.24 1.78 q1.42 0 2.3 -0.79 t0.88 -1.99 q0 -0.7 -0.25 -1.15 t-0.76 -0.78 t-1.3 -0.6 t-1.85 -0.63 q-1.6 -0.52 -2.37 -1.46 t-0.77 -2.4 q0 -1.72 1.29 -2.8 t3.25 -1.08 z M399.12399999999997 5.84 l0 12.96 l6.6 0 l0 1.2 l-7.92 0 l0 -14.16 l1.32 0 z M423.688 15.04 l6.5 0 l-3.2 -7.76 z M427.72799999999995 5.84 l5.96 14.16 l-1.48 0 l-1.54 -3.76 l-7.5 0 l-1.6 3.76 l-1.38 0 l6.18 -14.16 l1.36 0 z M456.3519999999999 5.48 q3.14 0 4.88 2.22 l-1.08 0.9 q-0.6 -0.9 -1.6 -1.41 t-2.2 -0.51 q-2.64 0 -4.3 1.74 t-1.7 4.5 q0 2.74 1.67 4.47 t4.33 1.77 q1.14 0 2.32 -0.57 t1.86 -1.63 l1.08 0.82 q-1.88 2.58 -5.26 2.58 q-3.28 -0.02 -5.27 -2.12 t-2.05 -5.32 q0 -3.26 2.05 -5.33 t5.27 -2.11 z M479.5759999999999 5.84 l0 6.24 l0.12 0 l6.86 -6.24 l1.82 0 l-7.16 6.48 l7.56 7.68 l-1.9 0 l-7.18 -7.32 l-0.12 0 l0 7.32 l-1.32 0 l0 -14.16 l1.32 0 z M513.3599999999999 5.84 l0 1.2 l-7.34 0 l0 5.04 l6.88 0 l0 1.2 l-6.88 0 l0 5.52 l7.66 0 l0 1.2 l-8.98 0 l0 -14.16 l8.66 0 z M535.0039999999999 12.08 q1.54 0 2.38 -0.69 t0.84 -1.83 t-0.82 -1.82 t-2.44 -0.7 l-2.86 0 l0 5.04 l2.9 0 z M534.6039999999999 5.84 q4.9 0 4.94 3.72 q0 3.14 -3.62 3.64 l4.12 6.8 l-1.5 0 l-3.98 -6.72 l-2.46 0 l0 6.72 l-1.32 0 l0 -14.16 l3.82 0 z M560.9079999999999 5.48 q2.46 0 3.86 1.78 l-1.14 0.82 q-1.04 -1.4 -2.76 -1.4 q-1.4 0 -2.27 0.72 t-0.91 1.96 q0 1.08 0.66 1.75 t2.3 1.13 q2.16 0.64 2.88 1.13 t1.09 1.21 t0.37 1.8 q0 1.72 -1.23 2.83 t-3.17 1.15 q-3.06 0 -4.6 -2.14 l1.26 -0.84 q1.06 1.76 3.24 1.78 q1.42 0 2.3 -0.79 t0.88 -1.99 q0 -0.7 -0.25 -1.15 t-0.76 -0.78 t-1.3 -0.6 t-1.85 -0.63 q-1.6 -0.52 -2.37 -1.46 t-0.77 -2.4 q0 -1.72 1.29 -2.8 t3.25 -1.08 z"></path></g>
			</g>
		</svg>
	